<?xml version="1.0" encoding="UTF-8" standalone="no"?>
<!DOCTYPE svg PUBLIC "-//W3C//DTD SVG 1.1//EN"
 "http://www.w3.org/Graphics/SVG/1.1/DTD/svg11.dtd">
<!-- Generated by graphviz version 2.47.0 (20210316.0004)
 -->
<!-- Title: dbml Pages: 1 -->
<svg width="1689pt" height="886pt"
 viewBox="0.00 0.00 1689.38 885.92" xmlns="http://www.w3.org/2000/svg" xmlns:xlink="http://www.w3.org/1999/xlink">
<g id="graph0" class="graph" transform="scale(1 1) rotate(0) translate(4 881.92)">
<title>dbml</title>
<!-- Customer -->
<g id="Customer" class="node">
<title>Customer</title>
<ellipse fill="none" stroke="black" stroke-width="0" cx="1418.33" cy="-650.53" rx="263.09" ry="214.92"/>
<polygon fill="#1d71b8" stroke="transparent" points="1234.33,-740.53 1234.33,-800.53 1602.33,-800.53 1602.33,-740.53 1234.33,-740.53"/>
<polygon fill="none" stroke="#29235c" points="1234.33,-740.53 1234.33,-800.53 1602.33,-800.53 1602.33,-740.53 1234.33,-740.53"/>
<text text-anchor="start" x="1286.75" y="-761.73" font-family="Helvetica,sans-Serif" font-weight="bold" font-size="32.00" fill="#ffffff"> &#160;&#160;&#160;&#160;&#160;&#160;Customer &#160;&#160;&#160;&#160;&#160;&#160;</text>
<polygon fill="#e7e2dd" stroke="transparent" points="1234.33,-680.53 1234.33,-740.53 1602.33,-740.53 1602.33,-680.53 1234.33,-680.53"/>
<polygon fill="none" stroke="#29235c" points="1234.33,-680.53 1234.33,-740.53 1602.33,-740.53 1602.33,-680.53 1234.33,-680.53"/>
<text text-anchor="start" x="1245.33" y="-701.73" font-family="Helvetica,sans-Serif" font-weight="bold" font-size="32.00" fill="#29235c">id</text>
<text text-anchor="start" x="1270.22" y="-701.73" font-family="Helvetica,sans-Serif" font-size="32.00" fill="#29235c"> &#160;&#160;&#160;</text>
<text text-anchor="start" x="1449.11" y="-701.73" font-family="Helvetica,sans-Serif" font-style="italic" font-size="32.00" fill="#29235c">INTEGER</text>
<polygon fill="#e7e2dd" stroke="transparent" points="1234.33,-620.53 1234.33,-680.53 1602.33,-680.53 1602.33,-620.53 1234.33,-620.53"/>
<polygon fill="none" stroke="#29235c" points="1234.33,-620.53 1234.33,-680.53 1602.33,-680.53 1602.33,-620.53 1234.33,-620.53"/>
<text text-anchor="start" x="1245.04" y="-640.73" font-family="Helvetica,sans-Serif" font-size="32.00" fill="#29235c">name &#160;&#160;&#160;</text>
<text text-anchor="start" x="1360.28" y="-641.73" font-family="Helvetica,sans-Serif" font-style="italic" font-size="32.00" fill="#29235c">VARCHAR(255)</text>
<polygon fill="#e7e2dd" stroke="transparent" points="1234.33,-560.53 1234.33,-620.53 1602.33,-620.53 1602.33,-560.53 1234.33,-560.53"/>
<polygon fill="none" stroke="#29235c" points="1234.33,-560.53 1234.33,-620.53 1602.33,-620.53 1602.33,-560.53 1234.33,-560.53"/>
<text text-anchor="start" x="1245.33" y="-580.73" font-family="Helvetica,sans-Serif" font-size="32.00" fill="#29235c">credit_limit &#160;&#160;&#160;</text>
<text text-anchor="start" x="1449.11" y="-581.73" font-family="Helvetica,sans-Serif" font-style="italic" font-size="32.00" fill="#29235c">DECIMAL</text>
<polygon fill="#e7e2dd" stroke="transparent" points="1234.33,-500.53 1234.33,-560.53 1602.33,-560.53 1602.33,-500.53 1234.33,-500.53"/>
<polygon fill="none" stroke="#29235c" points="1234.33,-500.53 1234.33,-560.53 1602.33,-560.53 1602.33,-500.53 1234.33,-500.53"/>
<text text-anchor="start" x="1245.33" y="-520.73" font-family="Helvetica,sans-Serif" font-size="32.00" fill="#29235c">balance &#160;&#160;&#160;</text>
<text text-anchor="start" x="1449.11" y="-521.73" font-family="Helvetica,sans-Serif" font-style="italic" font-size="32.00" fill="#29235c">DECIMAL</text>
<polygon fill="none" stroke="#29235c" stroke-width="2" points="1233.33,-499.53 1233.33,-801.53 1603.33,-801.53 1603.33,-499.53 1233.33,-499.53"/>
</g>
<!-- Item -->
<g id="Item" class="node">
<title>Item</title>
<ellipse fill="none" stroke="black" stroke-width="0" cx="248.9" cy="-396.53" rx="248.8" ry="299.63"/>
<polygon fill="#1d71b8" stroke="transparent" points="74.9,-546.53 74.9,-606.53 422.9,-606.53 422.9,-546.53 74.9,-546.53"/>
<polygon fill="none" stroke="#29235c" points="74.9,-546.53 74.9,-606.53 422.9,-606.53 422.9,-546.53 74.9,-546.53"/>
<text text-anchor="start" x="155.54" y="-567.73" font-family="Helvetica,sans-Serif" font-weight="bold" font-size="32.00" fill="#ffffff"> &#160;&#160;&#160;&#160;&#160;&#160;Item &#160;&#160;&#160;&#160;&#160;&#160;</text>
<polygon fill="#e7e2dd" stroke="transparent" points="74.9,-486.53 74.9,-546.53 422.9,-546.53 422.9,-486.53 74.9,-486.53"/>
<polygon fill="none" stroke="#29235c" points="74.9,-486.53 74.9,-546.53 422.9,-546.53 422.9,-486.53 74.9,-486.53"/>
<text text-anchor="start" x="85.9" y="-507.73" font-family="Helvetica,sans-Serif" font-weight="bold" font-size="32.00" fill="#29235c">id</text>
<text text-anchor="start" x="110.79" y="-507.73" font-family="Helvetica,sans-Serif" font-size="32.00" fill="#29235c"> &#160;&#160;&#160;</text>
<text text-anchor="start" x="269.68" y="-507.73" font-family="Helvetica,sans-Serif" font-style="italic" font-size="32.00" fill="#29235c">INTEGER</text>
<polygon fill="#e7e2dd" stroke="transparent" points="74.9,-426.53 74.9,-486.53 422.9,-486.53 422.9,-426.53 74.9,-426.53"/>
<polygon fill="none" stroke="#29235c" points="74.9,-426.53 74.9,-486.53 422.9,-486.53 422.9,-426.53 74.9,-426.53"/>
<text text-anchor="start" x="85.9" y="-446.73" font-family="Helvetica,sans-Serif" font-size="32.00" fill="#29235c">order_id &#160;&#160;&#160;</text>
<text text-anchor="start" x="269.68" y="-447.73" font-family="Helvetica,sans-Serif" font-style="italic" font-size="32.00" fill="#29235c">INTEGER</text>
<polygon fill="#e7e2dd" stroke="transparent" points="74.9,-366.53 74.9,-426.53 422.9,-426.53 422.9,-366.53 74.9,-366.53"/>
<polygon fill="none" stroke="#29235c" points="74.9,-366.53 74.9,-426.53 422.9,-426.53 422.9,-366.53 74.9,-366.53"/>
<text text-anchor="start" x="85.43" y="-386.73" font-family="Helvetica,sans-Serif" font-size="32.00" fill="#29235c">product_id &#160;&#160;&#160;</text>
<text text-anchor="start" x="269.79" y="-387.73" font-family="Helvetica,sans-Serif" font-style="italic" font-size="32.00" fill="#29235c">INTEGER</text>
<polygon fill="#e7e2dd" stroke="transparent" points="74.9,-306.53 74.9,-366.53 422.9,-366.53 422.9,-306.53 74.9,-306.53"/>
<polygon fill="none" stroke="#29235c" points="74.9,-306.53 74.9,-366.53 422.9,-366.53 422.9,-306.53 74.9,-306.53"/>
<text text-anchor="start" x="85.9" y="-326.73" font-family="Helvetica,sans-Serif" font-size="32.00" fill="#29235c">quantity &#160;&#160;&#160;</text>
<text text-anchor="start" x="269.68" y="-327.73" font-family="Helvetica,sans-Serif" font-style="italic" font-size="32.00" fill="#29235c">INTEGER</text>
<polygon fill="#e7e2dd" stroke="transparent" points="74.9,-246.53 74.9,-306.53 422.9,-306.53 422.9,-246.53 74.9,-246.53"/>
<polygon fill="none" stroke="#29235c" points="74.9,-246.53 74.9,-306.53 422.9,-306.53 422.9,-246.53 74.9,-246.53"/>
<text text-anchor="start" x="85.9" y="-266.73" font-family="Helvetica,sans-Serif" font-size="32.00" fill="#29235c">unit_price &#160;&#160;&#160;</text>
<text text-anchor="start" x="269.68" y="-267.73" font-family="Helvetica,sans-Serif" font-style="italic" font-size="32.00" fill="#29235c">DECIMAL</text>
<polygon fill="#e7e2dd" stroke="transparent" points="74.9,-186.53 74.9,-246.53 422.9,-246.53 422.9,-186.53 74.9,-186.53"/>
<polygon fill="none" stroke="#29235c" points="74.9,-186.53 74.9,-246.53 422.9,-246.53 422.9,-186.53 74.9,-186.53"/>
<text text-anchor="start" x="85.9" y="-206.73" font-family="Helvetica,sans-Serif" font-size="32.00" fill="#29235c">amount &#160;&#160;&#160;</text>
<text text-anchor="start" x="269.68" y="-207.73" font-family="Helvetica,sans-Serif" font-style="italic" font-size="32.00" fill="#29235c">DECIMAL</text>
<polygon fill="none" stroke="#29235c" stroke-width="2" points="73.9,-185.53 73.9,-607.53 423.9,-607.53 423.9,-185.53 73.9,-185.53"/>
</g>
<!-- Order -->
<g id="Order" class="node">
<title>Order</title>
<ellipse fill="none" stroke="black" stroke-width="0" cx="826.55" cy="-620.53" rx="292.98" ry="257.27"/>
<polygon fill="#1d71b8" stroke="transparent" points="621.55,-740.53 621.55,-800.53 1031.55,-800.53 1031.55,-740.53 621.55,-740.53"/>
<polygon fill="none" stroke="#29235c" points="621.55,-740.53 621.55,-800.53 1031.55,-800.53 1031.55,-740.53 621.55,-740.53"/>
<text text-anchor="start" x="723.41" y="-761.73" font-family="Helvetica,sans-Serif" font-weight="bold" font-size="32.00" fill="#ffffff"> &#160;&#160;&#160;&#160;&#160;&#160;Order &#160;&#160;&#160;&#160;&#160;&#160;</text>
<polygon fill="#e7e2dd" stroke="transparent" points="621.55,-680.53 621.55,-740.53 1031.55,-740.53 1031.55,-680.53 621.55,-680.53"/>
<polygon fill="none" stroke="#29235c" points="621.55,-680.53 621.55,-740.53 1031.55,-740.53 1031.55,-680.53 621.55,-680.53"/>
<text text-anchor="start" x="632.55" y="-701.73" font-family="Helvetica,sans-Serif" font-weight="bold" font-size="32.00" fill="#29235c">id</text>
<text text-anchor="start" x="657.43" y="-701.73" font-family="Helvetica,sans-Serif" font-size="32.00" fill="#29235c"> &#160;&#160;&#160;</text>
<text text-anchor="start" x="878.33" y="-701.73" font-family="Helvetica,sans-Serif" font-style="italic" font-size="32.00" fill="#29235c">INTEGER</text>
<polygon fill="#e7e2dd" stroke="transparent" points="621.55,-620.53 621.55,-680.53 1031.55,-680.53 1031.55,-620.53 621.55,-620.53"/>
<polygon fill="none" stroke="#29235c" points="621.55,-620.53 621.55,-680.53 1031.55,-680.53 1031.55,-620.53 621.55,-620.53"/>
<text text-anchor="start" x="632.55" y="-640.73" font-family="Helvetica,sans-Serif" font-size="32.00" fill="#29235c">customer_id &#160;&#160;&#160;</text>
<text text-anchor="start" x="878.33" y="-641.73" font-family="Helvetica,sans-Serif" font-style="italic" font-size="32.00" fill="#29235c">INTEGER</text>
<polygon fill="#e7e2dd" stroke="transparent" points="621.55,-560.53 621.55,-620.53 1031.55,-620.53 1031.55,-560.53 621.55,-560.53"/>
<polygon fill="none" stroke="#29235c" points="621.55,-560.53 621.55,-620.53 1031.55,-620.53 1031.55,-560.53 621.55,-560.53"/>
<text text-anchor="start" x="632.21" y="-580.73" font-family="Helvetica,sans-Serif" font-size="32.00" fill="#29235c">date_shipped &#160;&#160;&#160;</text>
<text text-anchor="start" x="859.16" y="-581.73" font-family="Helvetica,sans-Serif" font-style="italic" font-size="32.00" fill="#29235c">DATETIME</text>
<polygon fill="#e7e2dd" stroke="transparent" points="621.55,-500.53 621.55,-560.53 1031.55,-560.53 1031.55,-500.53 621.55,-500.53"/>
<polygon fill="none" stroke="#29235c" points="621.55,-500.53 621.55,-560.53 1031.55,-560.53 1031.55,-500.53 621.55,-500.53"/>
<text text-anchor="start" x="632.55" y="-520.73" font-family="Helvetica,sans-Serif" font-size="32.00" fill="#29235c">amount_total &#160;&#160;&#160;</text>
<text text-anchor="start" x="878.33" y="-521.73" font-family="Helvetica,sans-Serif" font-style="italic" font-size="32.00" fill="#29235c">DECIMAL</text>
<polygon fill="#e7e2dd" stroke="transparent" points="621.55,-440.53 621.55,-500.53 1031.55,-500.53 1031.55,-440.53 621.55,-440.53"/>
<polygon fill="none" stroke="#29235c" points="621.55,-440.53 621.55,-500.53 1031.55,-500.53 1031.55,-440.53 621.55,-440.53"/>
<text text-anchor="start" x="632.55" y="-460.73" font-family="Helvetica,sans-Serif" font-size="32.00" fill="#29235c">notes &#160;&#160;&#160;</text>
<text text-anchor="start" x="789.45" y="-461.73" font-family="Helvetica,sans-Serif" font-style="italic" font-size="32.00" fill="#29235c">VARCHAR(500)</text>
<polygon fill="none" stroke="#29235c" stroke-width="2" points="620.55,-439.53 620.55,-801.53 1032.55,-801.53 1032.55,-439.53 620.55,-439.53"/>
</g>
<!-- Item&#45;&gt;Order -->
<!-- Item&#45;&gt;Order -->
<g id="edge2" class="edge">
<title>Item:e&#45;&gt;Order:w</title>
<path fill="none" stroke="#29235c" stroke-width="3" d="M423.9,-456.53C563.18,-456.53 481.98,-698.28 610.5,-710.09"/>
<polygon fill="#29235c" stroke="#29235c" stroke-width="3" points="610.4,-713.59 620.55,-710.53 610.71,-706.59 610.4,-713.59"/>
<text text-anchor="middle" x="626.77" y="-720.13" font-family="Helvetica,sans-Serif" font-size="32.00" fill="#29235c">*</text>
<text text-anchor="middle" x="415.01" y="-466.13" font-family="Helvetica,sans-Serif" font-size="32.00" fill="#29235c">1</text>
</g>
<!-- Product -->
<g id="Product" class="node">
<title>Product</title>
<ellipse fill="none" stroke="black" stroke-width="0" cx="826.55" cy="-172.53" rx="263.09" ry="172.57"/>
<polygon fill="#1d71b8" stroke="transparent" points="642.55,-232.53 642.55,-292.53 1010.55,-292.53 1010.55,-232.53 642.55,-232.53"/>
<polygon fill="none" stroke="#29235c" points="642.55,-232.53 642.55,-292.53 1010.55,-292.53 1010.55,-232.53 642.55,-232.53"/>
<text text-anchor="start" x="709.17" y="-253.73" font-family="Helvetica,sans-Serif" font-weight="bold" font-size="32.00" fill="#ffffff"> &#160;&#160;&#160;&#160;&#160;&#160;Product &#160;&#160;&#160;&#160;&#160;&#160;</text>
<polygon fill="#e7e2dd" stroke="transparent" points="642.55,-172.53 642.55,-232.53 1010.55,-232.53 1010.55,-172.53 642.55,-172.53"/>
<polygon fill="none" stroke="#29235c" points="642.55,-172.53 642.55,-232.53 1010.55,-232.53 1010.55,-172.53 642.55,-172.53"/>
<text text-anchor="start" x="653.55" y="-193.73" font-family="Helvetica,sans-Serif" font-weight="bold" font-size="32.00" fill="#29235c">id</text>
<text text-anchor="start" x="678.43" y="-193.73" font-family="Helvetica,sans-Serif" font-size="32.00" fill="#29235c"> &#160;&#160;&#160;</text>
<text text-anchor="start" x="857.33" y="-193.73" font-family="Helvetica,sans-Serif" font-style="italic" font-size="32.00" fill="#29235c">INTEGER</text>
<polygon fill="#e7e2dd" stroke="transparent" points="642.55,-112.53 642.55,-172.53 1010.55,-172.53 1010.55,-112.53 642.55,-112.53"/>
<polygon fill="none" stroke="#29235c" points="642.55,-112.53 642.55,-172.53 1010.55,-172.53 1010.55,-112.53 642.55,-112.53"/>
<text text-anchor="start" x="653.25" y="-132.73" font-family="Helvetica,sans-Serif" font-size="32.00" fill="#29235c">name &#160;&#160;&#160;</text>
<text text-anchor="start" x="768.5" y="-133.73" font-family="Helvetica,sans-Serif" font-style="italic" font-size="32.00" fill="#29235c">VARCHAR(255)</text>
<polygon fill="#e7e2dd" stroke="transparent" points="642.55,-52.53 642.55,-112.53 1010.55,-112.53 1010.55,-52.53 642.55,-52.53"/>
<polygon fill="none" stroke="#29235c" points="642.55,-52.53 642.55,-112.53 1010.55,-112.53 1010.55,-52.53 642.55,-52.53"/>
<text text-anchor="start" x="653.55" y="-72.73" font-family="Helvetica,sans-Serif" font-size="32.00" fill="#29235c">unit_price &#160;&#160;&#160;</text>
<text text-anchor="start" x="857.33" y="-73.73" font-family="Helvetica,sans-Serif" font-style="italic" font-size="32.00" fill="#29235c">DECIMAL</text>
<polygon fill="none" stroke="#29235c" stroke-width="2" points="641.55,-51.53 641.55,-293.53 1011.55,-293.53 1011.55,-51.53 641.55,-51.53"/>
</g>
<!-- Item&#45;&gt;Product -->
<!-- Item&#45;&gt;Product -->
<g id="edge4" class="edge">
<title>Item:e&#45;&gt;Product:w</title>
<path fill="none" stroke="#29235c" stroke-width="3" d="M423.9,-396.53C549.94,-396.53 514.11,-213 631.29,-202.96"/>
<polygon fill="#29235c" stroke="#29235c" stroke-width="3" points="631.7,-206.45 641.55,-202.53 631.41,-199.45 631.7,-206.45"/>
<text text-anchor="middle" x="647.77" y="-202.53" font-family="Helvetica,sans-Serif" font-size="32.00" fill="#29235c">*</text>
<text text-anchor="middle" x="415.01" y="-406.13" font-family="Helvetica,sans-Serif" font-size="32.00" fill="#29235c">1</text>
</g>
<!-- Order&#45;&gt;Customer -->
<!-- Order&#45;&gt;Customer -->
<g id="edge6" class="edge">
<title>Order:e&#45;&gt;Customer:w</title>
<path fill="none" stroke="#29235c" stroke-width="3" d="M1032.55,-650.53C1122.23,-650.53 1139.01,-706.16 1223.28,-710.29"/>
<polygon fill="#29235c" stroke="#29235c" stroke-width="3" points="1223.25,-713.79 1233.33,-710.53 1223.42,-706.79 1223.25,-713.79"/>
<text text-anchor="middle" x="1227.11" y="-720.13" font-family="Helvetica,sans-Serif" font-size="32.00" fill="#29235c">*</text>
<text text-anchor="middle" x="1041.44" y="-660.13" font-family="Helvetica,sans-Serif" font-size="32.00" fill="#29235c">1</text>
</g>
</g>
</svg>
